<svg xmlns="http://www.w3.org/2000/svg" viewBox="0 0 120 120" width="120" height="120">
  <circle cx="60" cy="60" r="56" fill="#0d2240" stroke="#c5a253" stroke-width="3"/>
  <circle cx="60" cy="60" r="48" fill="none" stroke="#c5a253" stroke-width="1.5"/>
  <!-- Shield -->
  <path d="M60 22 L88 32 L88 56 Q88 78 60 92 Q32 78 32 56 L32 32 Z" fill="#142d4c" stroke="#c5a253" stroke-width="2"/>
  <!-- Star (14-point simplified to 5-point) -->
  <path d="M60 34 L63 44 L73 44 L65 50 L68 60 L60 54 L52 60 L55 50 L47 44 L57 44 Z" fill="#c5a253"/>
  <!-- Crescent -->
  <path d="M50 64 A12 12 0 1 0 70 64 A9 9 0 1 1 50 64 Z" fill="#c5a253" transform="rotate(-15 60 68)"/>
  <!-- Text MKN -->
  <text x="60" y="84" font-family="Arial, sans-serif" font-size="11" font-weight="bold" fill="#c5a253" text-anchor="middle" letter-spacing="2">MKN</text>
  <!-- Outer ring text -->
  <text x="60" y="14" font-family="Arial, sans-serif" font-size="5.5" fill="#c5a253" text-anchor="middle" letter-spacing="1.5">MAJLIS KESELAMATAN NEGARA</text>
  <text x="60" y="114" font-family="Arial, sans-serif" font-size="4.5" fill="#c5a253" text-anchor="middle" letter-spacing="2">MALAYSIA</text>
</svg>
